<svg id="Layer_1" data-name="Layer 1" xmlns="http://www.w3.org/2000/svg" viewBox="0 0 88.59 83.43"><defs><style>.cls-1{font-size:24px;}.cls-1,.cls-2{fill:#ec008c;font-family:Baskerville;}.cls-2{font-size:24.86px;}.cls-3{fill:none;stroke:#ed1f81;stroke-miterlimit:10;stroke-width:12px;}</style></defs><text class="cls-1" transform="translate(16.11 35.24)">H</text><text class="cls-1" transform="translate(34.28 45.13)">H</text><text class="cls-2" transform="translate(52.72 35.24) scale(0.97 1)">C</text><path class="cls-3" d="M295.94,394.29c-6.69-6.69-20.1-5-34.15,3-14-8-27.45-9.74-34.14-3s-5.06,19.59,2.59,33.34a90.58,90.58,0,0,0,15.08,19.69,93.58,93.58,0,0,0,16.47,13.19,93.27,93.27,0,0,0,16.48-13.19,90.58,90.58,0,0,0,15.08-19.69C301,413.88,302.51,400.86,295.94,394.29Z" transform="translate(-217.5 -384.14)"/></svg>